<?xml version="1.0" encoding="UTF-8" ?>
<!DOCTYPE svg PUBLIC "-//W3C//DTD SVG 1.1//EN" "http://www.w3.org/Graphics/SVG/1.1/DTD/svg11.dtd">
<svg width="500pt" height="500pt" viewBox="0 0 500 500" version="1.1" xmlns="http://www.w3.org/2000/svg">
<path fill="#ffffff" d=" M 0.00 0.00 L 500.00 0.00 L 500.00 500.00 L 0.00 500.00 L 0.00 0.00 Z" />
<path fill="#191919" d=" M 90.41 65.57 C 105.24 64.39 120.14 65.11 135.00 64.99 C 221.67 64.98 308.34 65.07 395.01 64.93 C 405.55 65.13 417.55 64.66 426.21 71.81 C 435.26 80.34 434.91 93.59 435.07 104.99 C 434.94 193.33 435.00 281.66 435.02 370.00 C 434.92 383.46 435.60 396.98 434.35 410.41 C 433.61 419.14 429.05 428.00 421.00 431.99 C 413.93 435.65 405.62 434.27 398.02 434.90 C 298.01 435.15 197.99 434.90 97.98 435.03 C 87.84 435.27 76.91 433.15 69.88 425.13 C 62.88 418.89 63.48 408.54 63.03 400.03 C 62.90 301.68 63.11 203.33 62.93 104.99 C 62.94 96.59 63.04 87.64 67.11 80.04 C 71.26 71.17 80.90 66.09 90.41 65.57 Z" />
<path fill="#ffffff" d=" M 86.65 76.66 C 95.28 74.67 104.21 75.08 113.00 74.92 C 209.67 75.17 306.35 74.82 403.03 75.08 C 410.63 75.64 420.87 77.30 422.87 86.13 C 425.56 95.14 424.81 104.71 425.08 114.00 C 424.76 170.82 425.34 227.65 424.77 284.47 C 401.02 270.95 384.15 248.36 361.07 233.90 C 346.93 225.05 334.87 213.53 322.12 202.90 C 314.63 197.43 306.56 192.61 297.96 189.10 C 284.03 184.91 269.34 186.48 255.04 186.70 C 246.20 184.23 239.53 177.33 231.06 174.04 C 218.05 170.45 204.40 169.54 190.96 170.00 C 181.23 171.45 174.41 179.09 168.77 186.51 C 176.04 186.36 183.87 185.84 190.51 189.36 C 200.72 194.71 209.33 202.52 218.07 209.92 C 221.28 212.98 225.15 215.64 227.46 219.51 C 228.28 226.68 228.66 234.09 227.37 241.23 C 226.91 245.02 222.73 246.20 220.08 248.14 C 209.21 254.38 198.19 260.37 186.96 265.94 C 177.55 270.60 169.38 277.76 164.34 287.04 C 179.99 285.76 195.17 280.52 210.89 280.26 C 222.33 286.79 234.58 293.71 241.58 305.34 C 244.48 309.74 245.60 315.00 247.18 319.95 C 248.40 324.52 250.63 329.65 248.33 334.29 C 242.34 348.60 243.06 364.75 246.54 379.62 C 250.59 395.30 256.21 410.49 261.35 425.82 C 250.25 426.63 239.12 427.09 228.00 427.04 C 186.33 426.97 144.66 426.97 102.99 427.08 C 94.24 427.06 84.61 427.19 77.16 421.83 C 71.37 414.41 73.61 404.63 73.01 396.02 C 72.96 299.34 73.07 202.67 72.94 105.99 C 72.98 98.96 73.29 91.63 76.14 85.11 C 77.96 80.75 82.12 77.70 86.65 76.66 Z" />
<path fill="#191919" d=" M 223.28 94.33 C 224.41 94.32 225.54 94.32 226.67 94.32 C 227.04 106.54 227.03 118.77 227.03 131.00 C 225.67 131.00 224.32 131.00 222.97 131.00 C 222.97 118.78 222.95 106.55 223.28 94.33 Z" />
<path fill="#191919" d=" M 246.00 94.01 C 246.75 94.00 248.26 94.00 249.01 94.00 C 248.96 98.08 248.94 102.17 248.90 106.27 C 254.28 104.64 261.74 101.93 265.47 107.56 C 269.83 114.37 269.65 125.58 262.08 130.08 C 257.58 132.24 252.63 130.52 248.48 128.50 C 247.77 129.50 247.05 130.49 246.33 131.48 C 245.96 118.99 245.91 106.50 246.00 94.01 Z" />
<path fill="#191919" d=" M 233.03 96.23 C 235.01 96.21 236.99 96.21 238.97 96.23 C 237.83 97.59 237.69 100.94 235.48 100.74 C 234.49 99.34 233.79 97.75 233.03 96.23 Z" />
<path fill="#191919" d=" M 371.03 96.23 C 373.01 96.21 374.98 96.21 376.97 96.23 C 375.82 97.59 375.69 100.94 373.48 100.74 C 372.49 99.34 371.79 97.75 371.03 96.23 Z" />
<path fill="#191919" d=" M 274.04 105.57 C 280.33 105.87 287.16 102.48 292.71 106.72 C 297.42 104.82 303.67 102.02 307.87 106.20 C 310.62 114.16 309.81 122.72 310.16 131.00 C 308.81 131.00 307.48 131.00 306.14 131.00 C 305.93 123.78 306.58 116.46 305.61 109.30 C 302.94 104.21 297.32 107.32 293.87 109.64 C 293.91 116.76 293.98 123.88 294.00 131.00 C 292.72 131.00 291.44 131.00 290.16 131.00 C 289.93 123.78 290.58 116.46 289.61 109.30 C 286.94 104.20 281.32 107.33 277.87 109.64 C 277.91 116.76 277.98 123.88 278.01 131.00 C 276.67 131.00 275.33 131.00 273.99 131.00 C 273.99 122.52 274.00 114.04 274.04 105.57 Z" />
<path fill="#191919" d=" M 344.04 105.53 C 350.62 106.14 358.17 102.08 363.93 106.14 C 366.53 114.15 365.85 122.70 366.16 131.00 C 364.81 131.00 363.47 131.00 362.14 131.00 C 361.94 123.77 362.56 116.46 361.64 109.28 C 358.72 104.76 350.41 105.34 348.73 110.65 C 347.73 117.36 347.98 124.21 347.74 130.99 C 346.49 130.99 345.25 131.00 344.01 131.00 C 343.99 122.51 344.00 114.02 344.04 105.53 Z" />
<path fill="#191919" d=" M 383.04 105.53 C 389.62 106.14 397.17 102.08 402.93 106.14 C 405.53 114.15 404.85 122.70 405.16 131.00 C 403.81 131.00 402.47 131.00 401.14 131.00 C 400.94 123.77 401.56 116.46 400.64 109.28 C 397.72 104.76 389.41 105.34 387.73 110.65 C 386.73 117.36 386.98 124.21 386.74 130.99 C 385.49 130.99 384.25 131.00 383.01 131.00 C 382.99 122.51 383.00 114.02 383.04 105.53 Z" />
<path fill="#191919" d=" M 234.00 105.00 C 235.33 105.00 236.66 105.00 238.00 105.00 C 238.00 113.67 238.00 122.33 238.00 131.00 C 236.66 131.00 235.33 131.00 234.00 131.00 C 233.99 122.33 233.99 113.67 234.00 105.00 Z" />
<path fill="#191919" d=" M 315.78 105.00 C 317.19 105.00 318.61 105.00 320.03 105.00 C 319.99 112.15 319.92 119.29 319.87 126.45 C 322.12 127.36 324.35 128.78 326.85 128.72 C 329.50 128.17 331.80 126.65 334.13 125.35 C 334.07 118.57 334.02 111.78 333.98 105.00 C 335.32 105.00 336.66 105.00 338.00 105.00 C 338.00 113.53 338.00 122.05 337.99 130.58 C 331.44 129.11 323.99 132.38 318.03 128.92 C 315.65 121.18 316.10 112.99 315.78 105.00 Z" />
<path fill="#191919" d=" M 372.00 105.00 C 373.33 105.00 374.66 105.00 376.00 105.00 C 376.00 113.67 376.00 122.33 376.00 131.00 C 374.66 131.00 373.33 131.00 372.00 131.00 C 371.99 122.33 371.99 113.67 372.00 105.00 Z" />
<path fill="#ffffff" d=" M 256.32 106.38 C 260.12 106.08 263.89 108.95 264.33 112.80 C 265.18 117.66 265.61 124.67 260.63 127.62 C 256.75 130.16 250.23 128.39 249.54 123.39 C 248.18 117.67 247.70 106.31 256.32 106.38 Z" />
<path fill="#191919" d=" M 123.17 143.48 C 124.61 143.34 127.50 143.06 128.94 142.92 C 129.02 158.53 129.00 174.15 129.02 189.76 C 135.71 189.63 143.15 187.47 148.85 192.12 C 154.61 195.37 154.45 204.54 149.06 208.09 C 141.13 213.61 125.75 212.84 122.83 202.15 C 121.18 188.76 122.21 175.21 121.89 161.75 C 115.08 169.15 110.08 177.89 104.68 186.30 C 103.44 186.93 100.94 188.20 99.70 188.83 C 99.16 170.26 119.31 160.65 123.17 143.48 Z" />
<path fill="#ffffff" d=" M 282.40 205.39 C 287.09 203.98 294.22 204.78 295.65 210.40 C 295.89 214.39 297.07 219.65 293.79 222.80 C 290.53 225.78 285.53 224.48 281.67 224.24 C 274.38 221.50 274.72 207.53 282.40 205.39 Z" />
</svg>
