<?xml version="1.0" encoding="UTF-8" standalone="no"?>
<svg
   xmlns:dc="http://purl.org/dc/elements/1.1/"
   xmlns:cc="http://creativecommons.org/ns#"
   xmlns:rdf="http://www.w3.org/1999/02/22-rdf-syntax-ns#"
   xmlns:svg="http://www.w3.org/2000/svg"
   xmlns="http://www.w3.org/2000/svg"
   xmlns:sodipodi="http://sodipodi.sourceforge.net/DTD/sodipodi-0.dtd"
   xmlns:inkscape="http://www.inkscape.org/namespaces/inkscape"
   width="1700"
   height="625"
   viewBox="0 0 1360 500"
   version="1.1"
   id="svg4047"
   inkscape:version="0.48.4 r9939"
   sodipodi:docname="logo.svg">
  <metadata
     id="metadata4085">
    <rdf:RDF>
      <cc:Work
         rdf:about="">
        <dc:format>image/svg+xml</dc:format>
        <dc:type
           rdf:resource="http://purl.org/dc/dcmitype/StillImage" />
        <dc:title></dc:title>
      </cc:Work>
    </rdf:RDF>
  </metadata>
  <defs
     id="defs4083" />
  <sodipodi:namedview
     pagecolor="#ffffff"
     bordercolor="#666666"
     borderopacity="1"
     objecttolerance="10"
     gridtolerance="10"
     guidetolerance="10"
     inkscape:pageopacity="0"
     inkscape:pageshadow="2"
     inkscape:window-width="1916"
     inkscape:window-height="1037"
     id="namedview4081"
     showgrid="false"
     inkscape:zoom="0.3416"
     inkscape:cx="846.3346"
     inkscape:cy="117.74061"
     inkscape:window-x="0"
     inkscape:window-y="41"
     inkscape:window-maximized="0"
     inkscape:current-layer="svg4047" />
  <path
     d="M 0,0 500,0 500,500 0,500 0,0 z"
     id="path4049"
     inkscape:connector-curvature="0"
     style="fill:#ffffff" />
  <path
     d="m 90.41,65.57 c 14.83,-1.18 29.73,-0.46 44.59,-0.58 86.67,-0.01 1043.3634,0.08 1130.0334,-0.06 10.54,0.2 22.54,-0.27 31.2,6.88 9.05,8.53 8.7,21.78 8.86,33.18 -0.13,88.34 -0.07,176.67 -0.05,265.01 -0.1,13.46 0.58,26.98 -0.67,40.41 -0.74,8.73 -5.3,17.59 -13.35,21.58 -7.07,3.66 -15.38,2.28 -22.98,2.91 -100.01,0.25 -1070.0534,0 -1170.0634,0.13 -10.14,0.24 -21.07,-1.88 -28.1,-9.9 -7,-6.24 -6.4,-16.59 -6.85,-25.1 -0.13,-98.35 0.08,-196.7 -0.1,-295.04 0.01,-8.4 0.11,-17.35 4.18,-24.95 4.15,-8.87 13.79,-13.95 23.3,-14.47 z"
     id="path4051"
     inkscape:connector-curvature="0"
     style="fill:#191919"
     sodipodi:nodetypes="ccccccccccccccc" />
  <path
     d="m 86.65,76.66 c 8.63,-1.99 17.56,-1.58 26.35,-1.74 96.67,0.25 193.35,-0.1 290.03,0.16 7.6,0.56 17.84,2.22 19.84,11.05 2.69,9.01 1.94,18.58 2.21,27.87 -0.32,56.82 0.26,113.65 -0.31,170.47 -23.75,-13.52 -40.62,-36.11 -63.7,-50.57 -14.14,-8.85 -26.2,-20.37 -38.95,-31 -7.49,-5.47 -15.56,-10.29 -24.16,-13.8 -13.93,-4.19 -28.62,-2.62 -42.92,-2.4 -8.84,-2.47 -15.51,-9.37 -23.98,-12.66 -13.01,-3.59 -26.66,-4.5 -40.1,-4.04 -9.73,1.45 -16.55,9.09 -22.19,16.51 7.27,-0.15 15.1,-0.67 21.74,2.85 10.21,5.35 18.82,13.16 27.56,20.56 3.21,3.06 7.08,5.72 9.39,9.59 0.82,7.17 1.2,14.58 -0.09,21.72 -0.46,3.79 -4.64,4.97 -7.29,6.91 -10.87,6.24 -21.89,12.23 -33.12,17.8 -9.41,4.66 -17.58,11.82 -22.62,21.1 15.65,-1.28 30.83,-6.52 46.55,-6.78 11.44,6.53 23.69,13.45 30.69,25.08 2.9,4.4 4.02,9.66 5.6,14.61 1.22,4.57 3.45,9.7 1.15,14.34 -5.99,14.31 -5.27,30.46 -1.79,45.33 4.05,15.68 9.67,30.87 14.81,46.2 -11.1,0.81 -22.23,1.27 -33.35,1.22 -41.67,-0.07 -83.34,-0.07 -125.01,0.04 -8.75,-0.02 -18.38,0.11 -25.83,-5.25 -5.79,-7.42 -3.55,-17.2 -4.15,-25.81 -0.05,-96.68 0.06,-193.35 -0.07,-290.03 0.04,-7.03 0.35,-14.36 3.2,-20.88 1.82,-4.36 5.98,-7.41 10.51,-8.45 z"
     id="path4053"
     inkscape:connector-curvature="0"
     style="fill:#ffffff" />
  <path
     d="m 123.17,143.48 c 1.44,-0.14 4.33,-0.42 5.77,-0.56 0.08,15.61 0.06,31.23 0.08,46.84 6.69,-0.13 14.13,-2.29 19.83,2.36 5.76,3.25 5.6,12.42 0.21,15.97 -7.93,5.52 -23.31,4.75 -26.23,-5.94 -1.65,-13.39 -0.62,-26.94 -0.94,-40.4 -6.81,7.4 -11.81,16.14 -17.21,24.55 -1.24,0.63 -3.74,1.9 -4.98,2.53 -0.54,-18.57 19.61,-28.18 23.47,-45.35 z"
     id="path4077"
     inkscape:connector-curvature="0"
     style="fill:#191919" />
  <path
     d="m 282.4,205.39 c 4.69,-1.41 11.82,-0.61 13.25,5.01 0.24,3.99 1.42,9.25 -1.86,12.4 -3.26,2.98 -8.26,1.68 -12.12,1.44 -7.29,-2.74 -6.95,-16.71 0.73,-18.85 z"
     id="path4079"
     inkscape:connector-curvature="0"
     style="fill:#ffffff" />
  <text
     xml:space="preserve"
     style="font-size:229.63070679px;font-style:normal;font-variant:normal;font-weight:normal;font-stretch:normal;text-align:start;line-height:125%;letter-spacing:0px;word-spacing:0px;writing-mode:lr-tb;text-anchor:start;fill:#000000;fill-opacity:1;stroke:none;font-family:Signika Negative;-inkscape-font-specification:Signika Negative"
     x="433.29633"
     y="336.11795"
     id="text4855"
     sodipodi:linespacing="125%"><tspan
       sodipodi:role="line"
       id="tspan4857"
       x="433.29633"
       y="336.11795"
       style="font-size:229.63070679px;font-style:normal;font-variant:normal;font-weight:normal;font-stretch:normal;text-align:start;line-height:125%;writing-mode:lr-tb;text-anchor:start;fill:#ffffff;fill-opacity:1;font-family:Signika Negative;-inkscape-font-specification:Signika Negative">libmunin</tspan></text>
</svg>
